# xmcd
#
# Track frame offsets: 
#        150
#        16610
#        31945
#        47107
#        69746
#
# Disc length: 1347 seconds
#
# Revision: 0
# Processed by: cddbd v1.5.2PL0 Copyright (c) Steve Scherf et al.
# Submitted via: ExactAudioCopy v1.1
#
DISCID=36054105
DTITLE=Caracho vs Right Said Fred - Schwarze Katze
DYEAR=2009
DGENRE=Electronic
TTITLE0=Schwarze Katze
TTITLE1=Caracho - Agathe Bauer
TTITLE2=Schwarze Katze (Nachts sind alle Katzen grau) (Egotronic Remix
TTITLE2=)
TTITLE3=Schwarze Katze (Fat Skinny Playboys Curiosity Killed The Cat R
TTITLE3=emix)
TTITLE4=Schwarze Katze (Cram and Greque Remix)
EXTD=
EXTT0=
EXTT1=
EXTT2=
EXTT3=
EXTT4=
PLAYORDER=
